<mxfile host="app.diagrams.net" agent="Mozilla/5.0 (Windows NT 10.0; Win64; x64) AppleWebKit/537.36 (KHTML, like Gecko) Chrome/129.0.0.0 Safari/537.36" version="24.7.17">
  <diagram name="第 1 页" id="YAWdD8OelZl-0ysux_Oy">
    <mxGraphModel dx="1562" dy="845" grid="1" gridSize="10" guides="1" tooltips="1" connect="1" arrows="1" fold="1" page="1" pageScale="1" pageWidth="827" pageHeight="1169" math="0" shadow="0">
      <root>
        <mxCell id="0" />
        <mxCell id="1" parent="0" />
        <mxCell id="zu7yAgM1czK31J3Mpzon-53" value="" style="edgeStyle=orthogonalEdgeStyle;rounded=0;orthogonalLoop=1;jettySize=auto;html=1;" parent="1" source="zu7yAgM1czK31J3Mpzon-1" target="zu7yAgM1czK31J3Mpzon-22" edge="1">
          <mxGeometry relative="1" as="geometry" />
        </mxCell>
        <mxCell id="zu7yAgM1czK31J3Mpzon-54" value="单位上报自身" style="edgeLabel;html=1;align=center;verticalAlign=middle;resizable=0;points=[];" parent="zu7yAgM1czK31J3Mpzon-53" vertex="1" connectable="0">
          <mxGeometry x="-0.0963" y="-1" relative="1" as="geometry">
            <mxPoint as="offset" />
          </mxGeometry>
        </mxCell>
        <mxCell id="zu7yAgM1czK31J3Mpzon-1" value="单位" style="rounded=1;whiteSpace=wrap;html=1;" parent="1" vertex="1">
          <mxGeometry x="100" y="780" width="100" height="60" as="geometry" />
        </mxCell>
        <mxCell id="zu7yAgM1czK31J3Mpzon-4" value="部门" style="rounded=1;whiteSpace=wrap;html=1;" parent="1" vertex="1">
          <mxGeometry x="520" y="780" width="100" height="60" as="geometry" />
        </mxCell>
        <mxCell id="zu7yAgM1czK31J3Mpzon-7" value="业务处" style="rounded=1;whiteSpace=wrap;html=1;" parent="1" vertex="1">
          <mxGeometry x="760" y="780" width="110" height="60" as="geometry" />
        </mxCell>
        <mxCell id="zu7yAgM1czK31J3Mpzon-8" value="国库" style="rounded=1;whiteSpace=wrap;html=1;" parent="1" vertex="1">
          <mxGeometry x="970" y="780" width="120" height="60" as="geometry" />
        </mxCell>
        <mxCell id="zu7yAgM1czK31J3Mpzon-55" value="" style="edgeStyle=orthogonalEdgeStyle;rounded=0;orthogonalLoop=1;jettySize=auto;html=1;" parent="1" source="zu7yAgM1czK31J3Mpzon-22" target="zu7yAgM1czK31J3Mpzon-24" edge="1">
          <mxGeometry relative="1" as="geometry" />
        </mxCell>
        <mxCell id="zu7yAgM1czK31J3Mpzon-57" value="审核" style="edgeLabel;html=1;align=center;verticalAlign=middle;resizable=0;points=[];" parent="zu7yAgM1czK31J3Mpzon-55" vertex="1" connectable="0">
          <mxGeometry x="-0.1198" y="1" relative="1" as="geometry">
            <mxPoint as="offset" />
          </mxGeometry>
        </mxCell>
        <mxCell id="zu7yAgM1czK31J3Mpzon-22" value="A审核" style="ellipse;whiteSpace=wrap;html=1;aspect=fixed;" parent="1" vertex="1">
          <mxGeometry x="300" y="785" width="50" height="50" as="geometry" />
        </mxCell>
        <mxCell id="zu7yAgM1czK31J3Mpzon-56" value="" style="edgeStyle=orthogonalEdgeStyle;rounded=0;orthogonalLoop=1;jettySize=auto;html=1;" parent="1" source="zu7yAgM1czK31J3Mpzon-24" target="zu7yAgM1czK31J3Mpzon-4" edge="1">
          <mxGeometry relative="1" as="geometry" />
        </mxCell>
        <mxCell id="zu7yAgM1czK31J3Mpzon-58" value="审核" style="edgeLabel;html=1;align=center;verticalAlign=middle;resizable=0;points=[];" parent="zu7yAgM1czK31J3Mpzon-56" vertex="1" connectable="0">
          <mxGeometry x="-0.256" relative="1" as="geometry">
            <mxPoint as="offset" />
          </mxGeometry>
        </mxCell>
        <mxCell id="zu7yAgM1czK31J3Mpzon-24" value="B审核" style="ellipse;whiteSpace=wrap;html=1;aspect=fixed;" parent="1" vertex="1">
          <mxGeometry x="414" y="785" width="50" height="50" as="geometry" />
        </mxCell>
        <mxCell id="zu7yAgM1czK31J3Mpzon-33" value="" style="endArrow=classic;html=1;rounded=0;exitX=1;exitY=0.5;exitDx=0;exitDy=0;entryX=0;entryY=0.5;entryDx=0;entryDy=0;" parent="1" source="zu7yAgM1czK31J3Mpzon-4" target="zu7yAgM1czK31J3Mpzon-7" edge="1">
          <mxGeometry width="50" height="50" relative="1" as="geometry">
            <mxPoint x="490" y="820" as="sourcePoint" />
            <mxPoint x="540" y="770" as="targetPoint" />
          </mxGeometry>
        </mxCell>
        <mxCell id="zu7yAgM1czK31J3Mpzon-34" value="部门上报自身&lt;div&gt;下级单位都已上报&lt;/div&gt;&lt;div&gt;下级单位都已审核&lt;/div&gt;" style="edgeLabel;html=1;align=center;verticalAlign=middle;resizable=0;points=[];" parent="zu7yAgM1czK31J3Mpzon-33" vertex="1" connectable="0">
          <mxGeometry x="0.0185" y="1" relative="1" as="geometry">
            <mxPoint as="offset" />
          </mxGeometry>
        </mxCell>
        <mxCell id="zu7yAgM1czK31J3Mpzon-49" value="" style="endArrow=classic;html=1;rounded=0;entryX=0;entryY=0.5;entryDx=0;entryDy=0;exitX=1;exitY=0.5;exitDx=0;exitDy=0;" parent="1" source="zu7yAgM1czK31J3Mpzon-7" target="zu7yAgM1czK31J3Mpzon-8" edge="1">
          <mxGeometry width="50" height="50" relative="1" as="geometry">
            <mxPoint x="700" y="820" as="sourcePoint" />
            <mxPoint x="750" y="770" as="targetPoint" />
          </mxGeometry>
        </mxCell>
        <mxCell id="zu7yAgM1czK31J3Mpzon-50" value="业务处上报自身" style="edgeLabel;html=1;align=center;verticalAlign=middle;resizable=0;points=[];" parent="zu7yAgM1czK31J3Mpzon-49" vertex="1" connectable="0">
          <mxGeometry x="-0.1704" y="-1" relative="1" as="geometry">
            <mxPoint as="offset" />
          </mxGeometry>
        </mxCell>
        <mxCell id="s2gbLiO1C5kirPI0UPH_-1" value="" style="endArrow=classic;html=1;rounded=0;exitX=0.5;exitY=0;exitDx=0;exitDy=0;entryX=0.5;entryY=0;entryDx=0;entryDy=0;" edge="1" parent="1" source="zu7yAgM1czK31J3Mpzon-8" target="zu7yAgM1czK31J3Mpzon-1">
          <mxGeometry width="50" height="50" relative="1" as="geometry">
            <mxPoint x="1030" y="770" as="sourcePoint" />
            <mxPoint x="1030" y="680" as="targetPoint" />
            <Array as="points">
              <mxPoint x="1030" y="650" />
              <mxPoint x="150" y="650" />
            </Array>
          </mxGeometry>
        </mxCell>
        <mxCell id="s2gbLiO1C5kirPI0UPH_-7" value="代替下级上报" style="edgeLabel;html=1;align=center;verticalAlign=middle;resizable=0;points=[];" vertex="1" connectable="0" parent="s2gbLiO1C5kirPI0UPH_-1">
          <mxGeometry x="-0.8281" y="-5" relative="1" as="geometry">
            <mxPoint as="offset" />
          </mxGeometry>
        </mxCell>
        <mxCell id="s2gbLiO1C5kirPI0UPH_-3" value="" style="endArrow=classic;html=1;rounded=0;" edge="1" parent="1">
          <mxGeometry width="50" height="50" relative="1" as="geometry">
            <mxPoint x="840" y="650" as="sourcePoint" />
            <mxPoint x="840" y="780" as="targetPoint" />
          </mxGeometry>
        </mxCell>
        <mxCell id="s2gbLiO1C5kirPI0UPH_-4" value="" style="endArrow=classic;html=1;rounded=0;entryX=0.596;entryY=0.03;entryDx=0;entryDy=0;entryPerimeter=0;" edge="1" parent="1" target="zu7yAgM1czK31J3Mpzon-4">
          <mxGeometry width="50" height="50" relative="1" as="geometry">
            <mxPoint x="580" y="650" as="sourcePoint" />
            <mxPoint x="820" y="810" as="targetPoint" />
          </mxGeometry>
        </mxCell>
        <mxCell id="s2gbLiO1C5kirPI0UPH_-5" value="" style="endArrow=classic;html=1;rounded=0;entryX=0.5;entryY=0;entryDx=0;entryDy=0;" edge="1" parent="1" target="zu7yAgM1czK31J3Mpzon-24">
          <mxGeometry width="50" height="50" relative="1" as="geometry">
            <mxPoint x="440" y="650" as="sourcePoint" />
            <mxPoint x="440" y="780" as="targetPoint" />
          </mxGeometry>
        </mxCell>
        <mxCell id="s2gbLiO1C5kirPI0UPH_-6" value="" style="endArrow=classic;html=1;rounded=0;" edge="1" parent="1">
          <mxGeometry width="50" height="50" relative="1" as="geometry">
            <mxPoint x="320" y="650" as="sourcePoint" />
            <mxPoint x="320" y="780" as="targetPoint" />
          </mxGeometry>
        </mxCell>
      </root>
    </mxGraphModel>
  </diagram>
</mxfile>
